<svg aria-hidden="true" style="width:0;height:0;position:absolute;overflow:hidden" xmlns="http://www.w3.org/2000/svg"><defs><symbol id="icon-slider-main" viewBox="0 0 75 32"><path fill="#8D3200" d="M37.333 32a3.2 3.2 0 0 0 3.2-3.2V3.2a3.2 3.2 0 0 0-6.4 0v25.6a3.2 3.2 0 0 0 3.2 3.2z"/><path fill="rgba(141, 50, 0, 0.1)" d="M54.4 32a3.2 3.2 0 0 0 3.2-3.2V18.133a3.2 3.2 0 0 0-6.4 0V28.8a3.2 3.2 0 0 0 3.2 3.2zM71.467 32a3.2 3.2 0 0 0 3.2-3.2V18.133a3.2 3.2 0 0 0-6.4 0V28.8a3.2 3.2 0 0 0 3.2 3.2zM20.267 32a3.2 3.2 0 0 0 3.2-3.2V18.133a3.2 3.2 0 0 0-6.4 0V28.8a3.2 3.2 0 0 0 3.2 3.2zM3.2 32a3.2 3.2 0 0 0 3.2-3.2V18.133a3.2 3.2 0 0 0-6.4 0V28.8A3.2 3.2 0 0 0 3.2 32z"/></symbol><symbol id="icon-slider-secondary" viewBox="0 0 75 32"><path fill="#FFF" d="M37.333 32a3.2 3.2 0 0 0 3.2-3.2V3.2a3.2 3.2 0 0 0-6.4 0v25.6a3.2 3.2 0 0 0 3.2 3.2z"/><path fill="rgba(255, 255, 255, 0.2)" d="M54.4 32a3.2 3.2 0 0 0 3.2-3.2V18.133a3.2 3.2 0 0 0-6.4 0V28.8a3.2 3.2 0 0 0 3.2 3.2zM71.467 32a3.2 3.2 0 0 0 3.2-3.2V18.133a3.2 3.2 0 0 0-6.4 0V28.8a3.2 3.2 0 0 0 3.2 3.2zM20.267 32a3.2 3.2 0 0 0 3.2-3.2V18.133a3.2 3.2 0 0 0-6.4 0V28.8a3.2 3.2 0 0 0 3.2 3.2zM3.2 32a3.2 3.2 0 0 0 3.2-3.2V18.133a3.2 3.2 0 0 0-6.4 0V28.8A3.2 3.2 0 0 0 3.2 32z"/></symbol><symbol id="icon-farmer" viewBox="0 0 32 32"><path d="M15.2 8a.8.8 0 1 0 0 1.6.8.8 0 0 0 0-1.6zM20 8a.8.8 0 1 0 0 1.6.8.8 0 0 0 0-1.6zM12.8 23.467h1.067v1.067H12.8v-1.067zM21.333 23.467H22.4v1.067h-1.067v-1.067zM12.8 30.4c0 .141.056.277.156.377l1.067 1.067c.1.1.236.156.377.156h6.4a.534.534 0 0 0 .377-.156l1.067-1.067c.1-.1.156-.236.156-.377v-4.267a.533.533 0 0 0-.533-.533h-8.533a.533.533 0 0 0-.533.533V30.4zm1.067-3.733h7.467v3.513l-.754.754h-5.958l-.754-.754v-3.513z"/><path d="M4.8 24h-.533a.533.533 0 0 0-.533.533v5.333c0 .295.239.533.533.533H4.8v1.6h1.067v-1.6h1.067v1.6h1.067v-.037a4.265 4.265 0 0 0 2.667-1.417v1.454h1.067v-9.6h11.733v9.6h1.067v-3.733h2.667v3.733h1.067v-3.733h.533a.533.533 0 0 0 .533-.533V25.6a.533.533 0 0 0-.533-.533h-.533v-4.8A4.272 4.272 0 0 0 24.002 16h-2.667v-.468a5.336 5.336 0 0 0 1.572-3.265h.028a2.129 2.129 0 0 0 2.036-1.532 2.667 2.667 0 0 0-1.503-4.868h-.533V3.456c0-1.44-.437-2.433-1.338-3.033a2.504 2.504 0 0 0-1.396-.422h-.399a2.504 2.504 0 0 0-1.396.422 1.446 1.446 0 0 1-1.609 0 2.504 2.504 0 0 0-1.396-.422h-.399a2.504 2.504 0 0 0-1.396.422c-.901.601-1.338 1.592-1.338 3.033v2.411h-.533a2.639 2.639 0 0 0-1.6.547V3.107a3.09 3.09 0 0 1 .91-2.198l-.754-.753a4.147 4.147 0 0 0-1.223 2.953v4.358a1.6 1.6 0 0 1-1.067 1.502v-5.86a3.09 3.09 0 0 1 .91-2.198L8.157.157A4.147 4.147 0 0 0 6.934 3.11v5.958H5.867V3.11a3.09 3.09 0 0 1 .91-2.198L6.023.158A4.147 4.147 0 0 0 4.8 3.111v5.86a1.6 1.6 0 0 1-1.067-1.502V3.111a3.09 3.09 0 0 1 .91-2.198L3.889.159a4.147 4.147 0 0 0-1.223 2.953V7.47a2.672 2.672 0 0 0 2.133 2.613v13.92zm1.067-11.733h1.067V24H5.867V12.267zm3.2 13.866h1.6V27.2h-1.6v-1.067zm1.6-4.266v3.2H8.969A1.6 1.6 0 0 0 8 24.098v-3.831a3.203 3.203 0 0 1 2.667-3.152v4.752zm-5.334 7.466H4.8v-4.267h2.667c.295 0 .533.239.533.533v3.2a.533.533 0 0 1-.533.533H5.334zM8 30.885v-.583A1.6 1.6 0 0 0 9.067 28.8v-.533h1.556a3.205 3.205 0 0 1-2.622 2.618zm3.733-9.552v-4.267H12.8v4.267h-1.067zm2.294-4.266a3.743 3.743 0 0 0 1.12 1.739l1.513 2.528h-2.793v-4.267h.16zm3.573 1.6A2.67 2.67 0 0 1 14.933 16v-2.133a2.667 2.667 0 1 1 5.334 0V16a2.67 2.67 0 0 1-2.667 2.667zm.684 1.001-.684 1.157-.693-1.159c.228.044.46.067.693.068.229-.001.458-.023.684-.066zm9.983 7.532h-3.733v-1.067h3.733V27.2zM27.2 20.267v4.8h-2.667v-7.952a3.203 3.203 0 0 1 2.667 3.152zm-3.733-3.2v4.267H22.4v-4.267h1.067zm-2.134 0v4.267h-2.797l1.476-2.489a3.735 3.735 0 0 0 1.164-1.778h.157zm-.003-3.27a3.73 3.73 0 0 0-7.46 0 4.268 4.268 0 0 1-.537-2.064v-4.8h8.533v4.8a4.274 4.274 0 0 1-.537 2.064zm1.603-2.597V9.067a1.067 1.067 0 0 1 0 2.134zm.534-4.267a1.599 1.599 0 0 1 1.417 2.342A2.133 2.133 0 0 0 22.934 8V6.933h.533zM14.196 1.31c.238-.159.518-.244.804-.244h.399c.287 0 .566.085.804.244a2.513 2.513 0 0 0 2.793 0c.238-.159.518-.244.804-.244h.399c.287 0 .566.085.804.244.37.246.863.738.863 2.145v.278h-8.533v-.278c0-1.408.493-1.899.863-2.145zm-.863 3.49h8.533v1.067h-8.533V4.8zm-1.6 2.133h.533V8a2.134 2.134 0 0 0-1.946 1.268 1.588 1.588 0 0 1 1.412-2.334zm-.533 3.2c0-.589.478-1.067 1.067-1.067v2.133a1.067 1.067 0 0 1-1.067-1.067zm-1.965-.686c.191.519.538.966.994 1.28a2.128 2.128 0 0 0 2.038 1.539h.028a5.336 5.336 0 0 0 1.572 3.265v.468H11.2A4.256 4.256 0 0 0 8 17.453v-7.374c.46-.097.887-.316 1.235-.633zM6.933 11.2H5.866v-1.067h1.067V11.2z"/><path d="m16.913 12.427-.758.747a1.86 1.86 0 0 0 2.892 0l-.758-.747a.819.819 0 0 1-1.374 0z"/></symbol><symbol id="icon-frame" viewBox="0 0 32 32"><path d="M25.333 27.133v-4.467a7.329 7.329 0 0 0 6.33-5.111 7.342 7.342 0 0 0-2.284-7.809 6 6 0 1 0-9.426 0 7.33 7.33 0 0 0-2.284 7.809 7.339 7.339 0 0 0 6.33 5.111v4a25.451 25.451 0 0 0-16 0v-4a7.332 7.332 0 0 0 4.046-12.92c.591-.75.994-1.631 1.177-2.569s.138-1.905-.13-2.823a6 6 0 0 0-11.76 1.644 5.95 5.95 0 0 0 1.287 3.713 7.34 7.34 0 0 0-2.322 7.834 7.329 7.329 0 0 0 6.368 5.12v4.467a25.776 25.776 0 0 0-6.413 3.673c-.11.085-.191.203-.23.337s-.036.276.009.408a.664.664 0 0 0 .634.448h30.667a.667.667 0 0 0 .413-1.193 25.714 25.714 0 0 0-6.413-3.673zm-6.666-11.8a6.009 6.009 0 0 1 2.667-4.974.672.672 0 0 0 .23-.786.655.655 0 0 0-.164-.241 4.66 4.66 0 0 1-1.053-5.097 4.662 4.662 0 0 1 4.32-2.902 4.664 4.664 0 0 1 4.32 2.902 4.667 4.667 0 0 1-1.053 5.097.675.675 0 0 0-.209.529.658.658 0 0 0 .275.498 5.991 5.991 0 0 1 2.659 5.287 5.994 5.994 0 0 1-3.171 4.997 6 6 0 0 1-8.823-5.311zm-17.334 0a6.009 6.009 0 0 1 2.666-4.974.672.672 0 0 0 .23-.786.655.655 0 0 0-.164-.241 4.66 4.66 0 0 1-1.053-5.097 4.662 4.662 0 0 1 4.32-2.902 4.664 4.664 0 0 1 4.32 2.902 4.66 4.66 0 0 1-1.053 5.097.663.663 0 0 0-.127.809c.048.086.114.16.193.218a6 6 0 1 1-9.334 4.973zM2.74 30.667a24.14 24.14 0 0 1 26.526 0H2.739z"/><path d="M6.86 9.807a.68.68 0 0 0 .473.197.66.66 0 0 0 .473-.197l2-2a.668.668 0 1 0-.946-.946L7.333 8.394 5.806 6.861a.668.668 0 1 0-.946.946l2 2zM6.86 14.473a.68.68 0 0 0 .473.197.66.66 0 0 0 .473-.197l2-2a.677.677 0 0 0 .196-.473.66.66 0 0 0-.196-.473.677.677 0 0 0-.473-.196.66.66 0 0 0-.473.196L7.333 13.06l-1.527-1.533a.677.677 0 0 0-.473-.196.66.66 0 0 0-.473.196.677.677 0 0 0-.196.473.66.66 0 0 0 .196.473l2 2zM7.807 19.14l2-2a.668.668 0 1 0-.946-.946l-1.527 1.533-1.527-1.533a.677.677 0 0 0-.473-.196.66.66 0 0 0-.473.196.677.677 0 0 0-.196.473.66.66 0 0 0 .196.473l2 2a.68.68 0 0 0 .473.197.66.66 0 0 0 .473-.197zM24.193 9.807a.68.68 0 0 0 .473.197.66.66 0 0 0 .473-.197l2-2a.673.673 0 0 0 0-.946.668.668 0 0 0-.946 0l-1.527 1.533-1.527-1.533a.668.668 0 1 0-.946.946l2 2zM24.193 14.473a.68.68 0 0 0 .473.197.66.66 0 0 0 .473-.197l2-2a.673.673 0 0 0 0-.946.668.668 0 0 0-.946 0l-1.527 1.533-1.527-1.533a.668.668 0 1 0-.946.946l2 2zM25.14 19.14l2-2a.673.673 0 0 0 0-.946.668.668 0 0 0-.946 0l-1.527 1.533-1.527-1.533a.668.668 0 1 0-.946.946l2 2a.68.68 0 0 0 .473.197.66.66 0 0 0 .473-.197z"/></symbol><symbol id="icon-fertilizer" viewBox="0 0 32 32"><path d="M24.86 28.157h-.133a.572.572 0 0 0 .975.404.57.57 0 0 0 .167-.404c-.001-.542-.216-1.061-.599-1.445s-.903-.599-1.445-.599a.572.572 0 0 0-.404.975.57.57 0 0 0 .404.167v-.133m1.035 1.035h-.133a.904.904 0 0 0-.903-.903v-.133m1.036 1.036a1.036 1.036 0 0 0-1.036-1.036m1.036 1.036a.437.437 0 1 0 .874 0c-.001-.507-.202-.992-.56-1.351s-.844-.56-1.351-.56a.437.437 0 1 0 0 .874M21.277 25.064v.133a.572.572 0 0 0 .404-.975.57.57 0 0 0-.404-.167l-1.055 2.064h.133a.921.921 0 0 1 .922-.923v-.133zm0 0a.437.437 0 1 0 0-.874v.875zM16.179 16.035a.572.572 0 0 0-.571-.571 3.573 3.573 0 0 0-2.45.972v-.41a3.581 3.581 0 0 0-.168-4.895.57.57 0 0 0-.808 0 3.594 3.594 0 0 0-.167 4.894v.411a3.587 3.587 0 0 0-2.45-.971.572.572 0 0 0-.571.571 3.595 3.595 0 0 0 3.021 3.543v.887a.572.572 0 0 0 .975.404.57.57 0 0 0 .167-.404v-.887a3.598 3.598 0 0 0 3.022-3.543zm-3.902-4.81a3.461 3.461 0 0 0-.128 4.75l.128-4.75zm-.004 2.446c0-.422.108-.835.313-1.201a2.45 2.45 0 0 1 0 2.403 2.46 2.46 0 0 1-.314-1.202zm1.602 3.654a2.46 2.46 0 0 1 1.071-.628 2.458 2.458 0 0 1-1.698 1.699c.114-.404.329-.773.627-1.071zm-2.578 0c.298.298.514.667.627 1.07a2.46 2.46 0 0 1-1.697-1.697 2.46 2.46 0 0 1 1.07.627z"/><path d="M5.723 16a6.87 6.87 0 0 0 8.203 6.732 6.862 6.862 0 0 0-1.339-13.595A6.874 6.874 0 0 0 5.723 16zm6.863-5.722a5.727 5.727 0 0 1 5.286 3.532 5.729 5.729 0 0 1-1.24 6.236 5.725 5.725 0 0 1-8.804-.867 5.719 5.719 0 0 1 .714-7.223 5.729 5.729 0 0 1 4.044-1.678z"/><path d="M29.165 27.975a2.82 2.82 0 0 0-2.126-2.513v-.066a2.809 2.809 0 0 0-2.587-2.794 2.796 2.796 0 0 0-.083-.288c.273-2.06.419-4.134.437-6.212v-.206c0-5.255-1.236-11.207-1.355-11.77v-2.55a.437.437 0 0 0-.437-.437H2.932a.436.436 0 0 0-.437.437v2.55c-.12.564-1.355 6.515-1.355 11.77v.206c0 5.255 1.236 11.206 1.355 11.77v2.55a.436.436 0 0 0 .437.437h27.491a.436.436 0 0 0 .437-.437 2.595 2.595 0 0 0-1.695-2.448zM3.37 2.014h19.207v1.722H3.37V2.014zM2.014 15.897c0-4.671.996-9.916 1.275-11.286h19.369c.277 1.37 1.275 6.615 1.275 11.286v.206a46.878 46.878 0 0 1-.304 5.025 3.034 3.034 0 0 0-4.323.078c-.37.39-.63.872-.752 1.396a2.807 2.807 0 0 0-2.584 2.795v.066a2.837 2.837 0 0 0-2.015 1.925H3.288c-.278-1.37-1.275-6.616-1.275-11.286l.001-.205zM3.37 28.264h9.917a2.594 2.594 0 0 0-1.102 1.722H3.369v-1.722zm14.509 1.722a1.178 1.178 0 0 1 1.096-.744.437.437 0 1 0 0-.874 2.063 2.063 0 0 0-2.008 1.619h-3.888a1.728 1.728 0 0 1 1.299-1.257.443.443 0 0 0 .341-.448l-.003-.048c0-.016-.003-.032-.003-.049a1.941 1.941 0 0 1 1.771-1.92.444.444 0 0 0 .312-.17.436.436 0 0 0 .083-.345 1.958 1.958 0 0 1-.034-.35 1.93 1.93 0 0 1 2.015-1.924l.038.003a.436.436 0 0 0 .462-.395 2.153 2.153 0 0 1 4.286 0 .439.439 0 0 0 .465.395l.032-.002c.032-.002.063-.005.095-.005a1.921 1.921 0 0 1 1.895 2.279.442.442 0 0 0 .221.463.444.444 0 0 0 .174.052 1.936 1.936 0 0 1 1.771 1.92c0 .016 0 .031-.002.047l-.003.05a.44.44 0 0 0 .34.448 1.726 1.726 0 0 1 1.299 1.257l-12.052-.001z"/><path stroke-width=".533" d="M29.165 27.975a2.82 2.82 0 0 0-2.126-2.513v-.066a2.809 2.809 0 0 0-2.587-2.794 2.796 2.796 0 0 0-.083-.288c.273-2.06.419-4.134.437-6.212v-.206c0-5.255-1.236-11.207-1.355-11.77v-2.55a.437.437 0 0 0-.437-.437H2.932a.436.436 0 0 0-.437.437v2.55c-.12.564-1.355 6.515-1.355 11.77v.206c0 5.255 1.236 11.206 1.355 11.77v2.55a.436.436 0 0 0 .437.437h27.491a.436.436 0 0 0 .437-.437 2.595 2.595 0 0 0-1.695-2.448zM3.37 2.014h19.207v1.722H3.37V2.014zM2.014 15.897c0-4.671.996-9.916 1.275-11.286h19.369c.277 1.37 1.275 6.615 1.275 11.286v.206a46.878 46.878 0 0 1-.304 5.025 3.034 3.034 0 0 0-4.323.078c-.37.39-.63.872-.752 1.396a2.807 2.807 0 0 0-2.584 2.795v.066a2.837 2.837 0 0 0-2.015 1.925H3.288c-.278-1.37-1.275-6.616-1.275-11.286l.001-.205zM3.37 28.264h9.917a2.594 2.594 0 0 0-1.102 1.722H3.369v-1.722zm14.509 1.722a1.178 1.178 0 0 1 1.096-.744.437.437 0 1 0 0-.874 2.063 2.063 0 0 0-2.008 1.619h-3.888a1.728 1.728 0 0 1 1.299-1.257.443.443 0 0 0 .341-.448l-.003-.048c0-.016-.003-.032-.003-.049a1.941 1.941 0 0 1 1.771-1.92.444.444 0 0 0 .312-.17.436.436 0 0 0 .083-.345 1.958 1.958 0 0 1-.034-.35 1.93 1.93 0 0 1 2.015-1.924l.038.003a.436.436 0 0 0 .462-.395 2.153 2.153 0 0 1 4.286 0 .439.439 0 0 0 .465.395l.032-.002c.032-.002.063-.005.095-.005a1.921 1.921 0 0 1 1.895 2.279.442.442 0 0 0 .221.463.444.444 0 0 0 .174.052 1.936 1.936 0 0 1 1.771 1.92c0 .016 0 .031-.002.047l-.003.05a.44.44 0 0 0 .34.448 1.726 1.726 0 0 1 1.299 1.257l-12.052-.001z"/><path d="M5.112 6.858H8.75a.572.572 0 0 0 .404-.975.57.57 0 0 0-.404-.167H5.112a.572.572 0 0 0-.404.975.57.57 0 0 0 .404.167zM10.505 6.858h.995a.572.572 0 0 0 .404-.975.57.57 0 0 0-.404-.167h-.995a.572.572 0 0 0-.404.975.57.57 0 0 0 .404.167z"/></symbol><symbol id="icon-sapling" viewBox="0 0 32 32"><path d="M4.491 25.507 7.5 27.011v3.364c0 .345.28.625.625.625h6.625c.345 0 .625-.28.625-.625v-8.159a3.698 3.698 0 0 0-3.337-3.693c-.007-.002-2.644-.414-3.867-1.637l-1.404-1.403a2.485 2.485 0 0 0-1.768-.733v-5c0-1.379-1.122-2.5-2.5-2.5s-2.5 1.121-2.5 2.5v8.49a8.123 8.123 0 0 0 4.491 7.267zM1.25 9.75c0-.689.561-1.25 1.25-1.25s1.25.561 1.25 1.25v5.335A2.507 2.507 0 0 0 2.5 17.25c0 .667.26 1.295.732 1.767l3.201 3.201a.625.625 0 0 0 .884-.884l-3.201-3.201a1.252 1.252 0 0 1 .467-2.063h.001a1.25 1.25 0 0 1 1.3.295l1.404 1.403c1.449 1.449 4.615 1.994 4.622 1.996a2.455 2.455 0 0 1 2.216 2.45v7.534H8.751v-3.125a.626.626 0 0 0-.345-.559l-3.354-1.677a6.837 6.837 0 0 1-3.8-6.149v-8.49zM15.375 15.375a.625.625 0 0 0 1.25 0V13.5h2.392a6.364 6.364 0 0 0 6.357-6.357V4.125a.627.627 0 0 0-1.067-.442 3.619 3.619 0 0 1-2.575 1.067 6.35 6.35 0 0 0-5.107 2.576V1.625a.625.625 0 0 0-1.25 0v3.201a6.35 6.35 0 0 0-5.107-2.576 3.62 3.62 0 0 1-2.576-1.067.624.624 0 0 0-1.067.442v3.018A6.364 6.364 0 0 0 12.982 11h2.392v4.375zM21.733 6c.851 0 1.67-.216 2.393-.622v1.765a5.113 5.113 0 0 1-5.108 5.107h-1.143l3.5-2.625a.625.625 0 0 0-.75-1l-4 3v-.518A5.113 5.113 0 0 1 21.732 6zM7.875 4.643V2.878a4.87 4.87 0 0 0 2.393.622 5.113 5.113 0 0 1 5.107 5.108v.518l-4-3a.625.625 0 0 0-.75 1l3.5 2.625h-1.143a5.113 5.113 0 0 1-5.107-5.107zM28.687 24.625a.625.625 0 1 0 0-1.25.625.625 0 0 0 0 1.25z"/><path d="M29.5 7.25a2.502 2.502 0 0 0-2.5 2.5v5c-.668 0-1.295.26-1.767.732l-1.404 1.403c-1.196 1.196-3.856 1.634-3.862 1.636a3.7 3.7 0 0 0-3.341 3.694v8.159c0 .345.28.625.625.625h6.625c.345 0 .625-.28.625-.625V27.01l2.046-1.023a.626.626 0 0 0-.559-1.119l-2.391 1.195a.624.624 0 0 0-.345.559v3.125h-5.375v-7.534c0-1.27.953-2.323 2.221-2.451.006-.002 3.089-.468 4.617-1.996l1.404-1.403c.358-.358.87-.448 1.3-.295h.001a1.252 1.252 0 0 1 .467 2.063l-3.201 3.201a.625.625 0 0 0 .884.884l3.201-3.201c.472-.472.732-1.1.732-1.768 0-.902-.488-1.724-1.25-2.165V9.747c0-.689.561-1.25 1.25-1.25s1.25.561 1.25 1.25v8.49a6.895 6.895 0 0 1-.835 3.283.625.625 0 1 0 1.099.597 8.152 8.152 0 0 0 .986-3.88v-8.49c0-1.379-1.121-2.5-2.5-2.5z"/></symbol><symbol id="icon-seeds" viewBox="0 0 32 32"><path stroke-width=".32" d="m26.483 22.788-.889-.023c-2.175 2.063-4.692 3.89-6.407 4.658a8.082 8.082 0 0 1-4.9.561 9.47 9.47 0 0 0 1.893-1.592c3.806-.509 6.526-3.243 6.643-3.362a.629.629 0 1 0-.897-.881l-.007.007-.019.019-.073.07c-.064.06-.158.146-.279.25-.243.209-.595.494-1.038.802-.806.559-1.908 1.188-3.192 1.568a9.34 9.34 0 0 0 1.328-4.812c0-.342-.019-.723-.056-1.132a.63.63 0 0 0-.682-.57h-.001a.63.63 0 0 0-.57.683c.034.374.051.717.051 1.019 0 4.491-3.654 8.145-8.145 8.145s-8.145-3.654-8.145-8.145c0-2.467 1.056-6.678 2.517-10.003.881-2.006 1.842-3.575 2.811-4.639.972-1.068 1.933-1.607 2.817-1.607.805 0 1.579.428 2.284 1.067.703.637 1.317 1.466 1.8 2.228l.135-.086a.468.468 0 0 0 .647.145l.086.135a.628.628 0 0 0 .195-.867c-1.606-2.538-3.334-3.88-5.146-3.88-1.34 0-2.648.748-3.889 2.171-1.033 1.185-2.005 2.811-2.89 4.827C.923 13.053-.158 17.371-.158 20.053c0 5.185 4.218 9.403 9.402 9.403a9.349 9.349 0 0 0 3.392-.633 9.395 9.395 0 0 0 3.226.575 9.387 9.387 0 0 0 3.841-.827c1.878-.841 4.465-2.718 6.758-4.893a.629.629 0 0 0 .023-.889z"/><path stroke-width=".32" d="M15.413 8.247c.303.602.595 1.245.871 1.913 2.967-.583 6.232-.794 8.842-.562 3.53.313 5.888 1.405 6.707 3.232m-16.42-4.583 12.45 14.019M15.413 8.247a.629.629 0 0 0-.844-.279l.844.279zm16.42 4.584zm0 0c.698 1.558.193 3.387-.709 5.068-.906 1.689-2.235 3.272-3.261 4.367m-.001 0a.63.63 0 0 1-.459.199m.459-.199-.459.199m-10.18-5.356-.157.029c-.521-2.792-1.56-5.906-2.777-8.327m2.934 8.298-2.655-9.141a.629.629 0 0 0-.279.844m2.934 8.297-.157.029a.629.629 0 0 0 .618.514m-.461-.543.46.543m-3.394-8.84zm4.013 8.096a.628.628 0 0 1-.503.733l.503-.733zm0 0a32.173 32.173 0 0 0-.577-2.506c2.459-.856 4.609-1.084 6.155-1.096.788-.006 1.419.044 1.854.096a9.575 9.575 0 0 1 .632.096l.034.007.009.002.003.001a.63.63 0 0 0 .756-.468m-8.866 3.868 8.866-3.867m0 0a.628.628 0 0 0-.468-.756m.468.756 3.517.304m0 0c-.374-.834-1.224-1.411-2.284-1.805-1.056-.392-2.291-.591-3.387-.689-2.428-.215-5.468-.029-8.266.5.223.604.432 1.221.625 1.842 5.278-1.822 9.143-.952 9.327-.908m3.985 1.06c.378.843.258 1.993-.377 3.381-.633 1.384-1.766 2.976-3.363 4.68a.63.63 0 0 0 .029.889m3.711-8.95-3.712 8.95m-.273-10.01zm.274 10.01a.63.63 0 0 0 .43.17m-.43-.17.43.17m-9.72-4.813a.66.66 0 0 0 .116-.011l-.116.011zM24.64 17.148a.63.63 0 0 1 .842.287m-.842-.287-5.742 3.522a.628.628 0 0 0 .842.287l5.455-2.681a.629.629 0 0 0 .287-.842m-.842-.286-5.455 2.681m5.455-2.681-5.455 2.681m6.296-2.393zm-6.296 2.393a.629.629 0 0 0-.287.842l.287-.842zM7.527 6.888a.627.627 0 0 1 .118.88m-.118-.88L4.773 23.131l.031.157a.629.629 0 0 0 .494-.74c-.955-4.789-.263-8.555.484-10.869a16.73 16.73 0 0 1 1.234-2.896 11.298 11.298 0 0 1 .582-.949l.047-.066m-.118-.88a.628.628 0 0 0-.881.118c-.055.072-1.169 1.55-2.045 4.242-.804 2.469-1.546 6.474-.535 11.546a.63.63 0 0 0 .616.506L7.528 6.888zm.118.881zM14.051 14.582a.629.629 0 0 1 .814.356l-.149.058c.027.068.653 1.69.746 3.855l-1.411-4.269zm0 0a.629.629 0 0 0-.357.814m.357-.814-1.983 10.667m-.001.001c1.627-1.588 2.404-3.709 2.299-6.323a12.614 12.614 0 0 0-.578-3.257 5.392 5.392 0 0 0-.069-.203l-.019-.053-.005-.014a.042.042 0 0 0-.002-.005m-1.626 9.855a.63.63 0 0 0-.011.889m.011-.889-.011.889m1.638-10.743zm-1.638 10.743c.123.126.287.19.45.19m-.45-.19.45.19m0-.001c.158 0 .317-.06.439-.179l-.439.179zM10.848 10.225h-.001a.63.63 0 0 0-.606.651l.216 6.074a.629.629 0 0 0 .628.606h.023a.63.63 0 0 0 .606-.651l-.216-6.074a.63.63 0 0 0-.649-.606zM6.085 24.523l.003.003.008.009.031.033a7.291 7.291 0 0 0 .537.493c.354.291.828.62 1.332.803a.63.63 0 0 1 .376.806m-2.287-2.147 1.536 2.372-.055.15a.628.628 0 0 0 .806-.376m-2.287-2.146a.629.629 0 0 0-.888-.044l.888.044zm2.287 2.146zm-3.22-1.303zm0 0a.628.628 0 0 1 .045-.888l-.045.888zM11.35 18.168a.629.629 0 0 0-.629.629v.043a.63.63 0 0 0 1.258 0v-.043a.63.63 0 0 0-.629-.629zM10.195 19.403a.629.629 0 0 0-.629.629v.043a.63.63 0 0 0 1.258 0v-.043a.629.629 0 0 0-.629-.629zM11.686 21.503a.629.629 0 0 0-.629.629v.043a.63.63 0 0 0 1.258 0v-.043a.63.63 0 0 0-.629-.629z"/></symbol><symbol id="icon-arrow-right" viewBox="0 0 32 32"><path d="M1.923 13.754a2.28 2.28 0 0 1 .396-.029h22.575l-.492-.229a4.596 4.596 0 0 1-1.294-.916l-6.331-6.331a2.37 2.37 0 0 1-.332-3.034 2.29 2.29 0 0 1 3.434-.298l11.448 11.448c.895.894.896 2.343.002 3.238l-.002.002-11.448 11.448a2.29 2.29 0 0 1-3.434-.228 2.37 2.37 0 0 1 .332-3.034l6.319-6.342a4.597 4.597 0 0 1 1.145-.836l.687-.309H2.444a2.37 2.37 0 0 1-2.416-1.923 2.29 2.29 0 0 1 1.893-2.627z"/></symbol><symbol id="icon-arrow-left" viewBox="0 0 36 32"><path d="M33.419 13.504a2.6 2.6 0 0 0-.44-.033H7.895l.547-.254a5.06 5.06 0 0 0 1.437-1.018l7.034-7.034a2.634 2.634 0 0 0 .369-3.371 2.544 2.544 0 0 0-3.816-.331L.746 14.183a2.544 2.544 0 0 0-.002 3.598l.002.002 12.72 12.72a2.544 2.544 0 0 0 3.816-.254 2.634 2.634 0 0 0-.369-3.371l-7.021-7.047a5.104 5.104 0 0 0-1.272-.929l-.763-.343h24.982c1.3.048 2.44-.859 2.684-2.137a2.543 2.543 0 0 0-2.104-2.918z"/></symbol><symbol id="icon-email" viewBox="0 0 32 32"><path stroke-width=".4" d="M0 4.75v22.5h32V4.75H0zm28.792 1.875L16 19.364 3.208 6.625h25.585zM1.875 25.375V7.944L16 22.01 30.125 7.944v17.431H1.875z"/></symbol><symbol id="icon-arrow-top" viewBox="0 0 32 32"><path d="M13.754 30.077a2.288 2.288 0 0 1-.029-.396V7.106l-.229.492a4.596 4.596 0 0 1-.916 1.294l-6.331 6.331a2.37 2.37 0 0 1-3.034.332 2.29 2.29 0 0 1-.298-3.434L14.365.673a2.29 2.29 0 0 1 3.238-.002l.002.002 11.448 11.448a2.29 2.29 0 0 1-.228 3.434 2.37 2.37 0 0 1-3.034-.332l-6.342-6.319a4.597 4.597 0 0 1-.836-1.145l-.309-.687v22.484a2.37 2.37 0 0 1-1.923 2.416 2.29 2.29 0 0 1-2.627-1.893z"/></symbol><symbol id="icon-arrow-down" viewBox="0 0 32 32"><path d="M16 25.12a2.235 2.235 0 0 1-1.584-.656L.657 10.705a2.241 2.241 0 0 1 3.169-3.169L16 19.711 28.174 7.536a2.241 2.241 0 0 1 3.169 3.169L17.584 24.464A2.235 2.235 0 0 1 16 25.12z"/></symbol><symbol id="icon-call" viewBox="0 0 32 32"><path d="m24.396 29.091-4.387-7.738a.433.433 0 0 1-.063-.343.444.444 0 0 1 .209-.28.442.442 0 0 1 .347-.037.44.44 0 0 1 .263.229l4.387 7.738-.756.431zM14.336 10.909a.449.449 0 0 1-.378-.221L9.571 2.956l.756-.436 4.387 7.738a.43.43 0 0 1-.163.582.484.484 0 0 1-.215.07z"/><path d="M20.107 30.394a7.663 7.663 0 0 1-1.914-.209c-6.255-1.728-14.47-16.221-12.742-22.47a10.48 10.48 0 0 1 4.282-5.353c.384-.227.774-.431 1.164-.617a1.568 1.568 0 0 1 2.019.657l3.287 5.818a1.568 1.568 0 0 1-.733 2.217c-.32.14-.634.285-.937.442-1.321.663-2.077 1.263-2.252 1.786-.401 1.245.076 3.351 1.216 5.364s2.676 3.491 3.962 3.764c.378.087 1.164 0 2.688-1.007.291-.18.582-.378.867-.582a1.558 1.558 0 0 1 1.25-.252 1.555 1.555 0 0 1 1.025.758l3.293 5.818a1.572 1.572 0 0 1-.471 2.077 16.22 16.22 0 0 1-1.129.681 10.463 10.463 0 0 1-4.876 1.105zM11.543 2.467a.703.703 0 0 0-.279.064c-.361.169-.727.367-1.088.582a9.66 9.66 0 0 0-3.887 4.829c-.733 2.659.553 7.482 3.276 12.282s6.202 8.384 8.861 9.123c2.083.4 4.239.105 6.138-.838.372-.204.727-.419 1.059-.64a.701.701 0 0 0 .204-.919l-3.293-5.818a.694.694 0 0 0-.453-.337.72.72 0 0 0-.581.117c-.297.209-.582.413-.896.582-1.478.954-2.543 1.309-3.351 1.129-1.542-.349-3.235-1.914-4.527-4.189-1.007-1.745-1.868-4.282-1.286-6.063.25-.774 1.105-1.507 2.682-2.327.314-.163.646-.314.977-.46a.716.716 0 0 0 .332-1.007l-3.293-5.818a.7.7 0 0 0-.593-.285v-.006z"/></symbol><symbol id="icon-heart" viewBox="0 0 38 32"><path stroke-width=".6" d="M17.6 3.695A9.482 9.482 0 0 1 24.381.856c5.249 0 9.519 4.27 9.519 9.52-.001 2.665-.862 5.415-2.54 8.17-1.328 2.18-3.17 4.373-5.471 6.521-3.901 3.64-7.857 5.946-7.904 5.973a.768.768 0 0 1-.762.005m.377-27.35-.235 27.086M17.6 3.695A9.482 9.482 0 0 0 10.819.856C5.57.856 1.3 5.126 1.3 10.375c0 3.094 1.156 6.288 3.405 9.491a.768.768 0 0 0 1.071.187L17.6 3.695zm-.377 27.35-.008-.005m.008.005.002.001-.01-.006m.008.005-.009-.004-.049-.023-.181-.089a18.024 18.024 0 0 1-.657-.348 26.604 26.604 0 0 1-2.268-1.423 32.327 32.327 0 0 1-6.591-6.151m9.747 8.033.15-.26m-.15.26.15-.26m-9.897-7.775.233-.189m-.233.189.233-.189m-.233.189a.769.769 0 1 1 1.194-.968c3.505 4.326 6.981 6.319 8.574 7.233.134.077.255.146.361.209a48.744 48.744 0 0 0 7.256-5.548c1.723-1.609 3.604-3.654 5.053-5.973s2.456-4.899 2.456-7.581L7.701 22.817m0-.001c4.403 5.435 9.183 7.733 9.631 7.949l.033.016m.83-25.449a7.955 7.955 0 0 1 6.186-2.938c4.401 0 7.981 3.581 7.981 7.982L18.195 5.332z"/></symbol><symbol id="icon-loupe" viewBox="0 0 32 32"><path d="m31.609 29.724-9.1-9.1a12.603 12.603 0 0 0 2.824-7.957C25.333 5.683 19.65 0 12.666 0S0 5.683 0 12.666c0 6.984 5.683 12.667 12.667 12.667 3.013 0 5.78-1.061 7.957-2.824l9.1 9.1a1.33 1.33 0 0 0 1.886 0 1.332 1.332 0 0 0 0-1.885zm-18.942-7.057c-5.515 0-10-4.485-10-10s4.485-10 10-10 10 4.485 10 10-4.485 10-10 10z"/></symbol><symbol id="icon-leaf" viewBox="0 0 42 32"><path d="M41.177.031a2.397 2.397 0 0 0-.415 0H23.758c-6.017.22-10.539 1.721-13.568 4.504a6.219 6.219 0 0 0-.415.397 13.716 13.716 0 0 0-3.55 6.427L.942 31.682h17.449c5.989-.22 10.497-1.709 13.526-4.467.144-.128.283-.263.421-.397a13.714 13.714 0 0 0 3.61-6.463L41.231.032h-.054zm-15.68 17.595a7.908 7.908 0 0 1-2.521 4.059l-.253.201a7.54 7.54 0 0 1-4.067 1.556h-4.543l2.521-9.35a7.96 7.96 0 0 1 2.052-3.662c.138-.134.283-.269.433-.397l.289-.238a7.54 7.54 0 0 1 4.067-1.556h4.549l-2.527 9.387z"/></symbol><symbol id="icon-comparison" viewBox="0 0 32 32"><path d="m31.866 19.535-5.391-8.986 4.838-1.344a.937.937 0 1 0-.502-1.806L24.797 9.07h-.001l-7.858 2.183V.939a.938.938 0 0 0-1.876 0v10.835l-8.34 2.317h-.001L.687 15.767a.937.937 0 1 0 .502 1.807l3.762-1.045-4.816 8.028a.941.941 0 0 0-.134.482c0 3.839 3.123 6.962 6.962 6.962s6.962-3.123 6.962-6.962a.93.93 0 0 0-.134-.482L8.4 15.571l14.625-4.062-4.816 8.028a.941.941 0 0 0-.134.482 6.97 6.97 0 0 0 6.962 6.962c1.86 0 3.608-.724 4.923-2.039s2.039-3.063 2.039-4.923a.938.938 0 0 0-.133-.482zM6.963 30.125a5.096 5.096 0 0 1-5-4.15h10a5.095 5.095 0 0 1-5 4.15zm4.369-6.025H2.594l4.369-7.283 4.369 7.283zm13.705-12.303 4.369 7.282h-8.738l4.369-7.282zm0 13.307a5.096 5.096 0 0 1-5-4.15h10a5.095 5.095 0 0 1-5 4.15z"/></symbol><symbol id="icon-shopping-cart" viewBox="0 0 32 32"><path d="M31.815 6.686a1.022 1.022 0 0 0-.798-.438l-19.85-.856a1.026 1.026 0 1 0-.088 2.052l18.506.798-3.639 11.353H9.754L6.829 3.666a1.026 1.026 0 0 0-.635-.77L1.403 1.014a1.027 1.027 0 0 0-.751 1.911l4.26 1.674 2.977 16.208c.09.487.514.841 1.01.841h.494L8.265 24.78a.855.855 0 0 0 .805 1.146h.791a3.062 3.062 0 0 0-.791 2.053c0 1.699 1.382 3.08 3.08 3.08s3.08-1.382 3.08-3.08a3.06 3.06 0 0 0-.791-2.053h6.716a3.062 3.062 0 0 0-.791 2.053c0 1.699 1.382 3.08 3.08 3.08s3.08-1.382 3.08-3.08a3.06 3.06 0 0 0-.791-2.053h.962a.856.856 0 1 0 0-1.712H10.287l.924-2.567h15.484c.447 0 .842-.288.978-.713l4.278-13.348a1.024 1.024 0 0 0-.135-.9zM12.15 29.348c-.755 0-1.369-.614-1.369-1.369s.614-1.369 1.369-1.369 1.369.614 1.369 1.369-.614 1.369-1.369 1.369zm11.294 0c-.755 0-1.369-.614-1.369-1.369s.614-1.369 1.369-1.369 1.369.614 1.369 1.369-.614 1.369-1.369 1.369z"/></symbol><symbol id="icon-menu" viewBox="0 0 32 32"><path d="M29.188 3.813H10.313C8.762 3.813 7.5 5.075 7.5 6.626s1.261 2.813 2.813 2.813h18.875C30.739 9.439 32 8.178 32 6.626s-1.262-2.813-2.812-2.813zM29.188 13.188H10.313C8.762 13.188 7.5 14.45 7.5 16s1.261 2.812 2.813 2.812h18.875C30.739 18.812 32 17.551 32 16s-1.262-2.812-2.812-2.812zM29.188 22.563H10.313c-1.551 0-2.813 1.262-2.813 2.812s1.261 2.813 2.813 2.813h18.875c1.551 0 2.812-1.261 2.812-2.813s-1.262-2.812-2.812-2.812zM2.813 3.813C1.262 3.813 0 5.075 0 6.626s1.261 2.813 2.813 2.813c1.551 0 2.813-1.261 2.813-2.813S4.364 3.813 2.813 3.813zM2.813 13.188C1.262 13.188 0 14.45 0 16s1.261 2.812 2.813 2.812c1.551 0 2.813-1.261 2.813-2.812s-1.262-2.812-2.813-2.812zM2.813 22.563C1.262 22.563 0 23.825 0 25.375s1.261 2.813 2.813 2.813c1.551 0 2.813-1.261 2.813-2.813s-1.262-2.812-2.813-2.812z"/></symbol><symbol id="icon-log-out" viewBox="0 0 32 32"><path d="M5.333 21.333V24a5.332 5.332 0 0 0 5.333 5.333h13.333A5.332 5.332 0 0 0 29.332 24V8a5.333 5.333 0 0 0-5.333-5.333H10.666A5.333 5.333 0 0 0 5.333 8v2.667a1.333 1.333 0 0 0 2.666 0V8a2.668 2.668 0 0 1 2.667-2.667h13.333A2.668 2.668 0 0 1 26.666 8v16a2.666 2.666 0 0 1-2.667 2.667H10.666A2.667 2.667 0 0 1 7.999 24v-2.667a1.334 1.334 0 0 0-2.666 0zm10.115-6.666-1.724-1.723a1.334 1.334 0 0 1 1.885-1.887l4 4a1.334 1.334 0 0 1 0 1.887l-4 4a1.334 1.334 0 0 1-1.885-1.887l1.724-1.724H4a1.333 1.333 0 0 1 0-2.666h11.448z"/></symbol><symbol id="icon-cross" viewBox="0 0 32 32"><path d="M31.708 25.708 22 16l9.708-9.708a1 1 0 0 0 0-1.414L27.122.292a1 1 0 0 0-1.414-.001L16 9.999 6.292.291a.998.998 0 0 0-1.414.001L.292 4.878a1 1 0 0 0 0 1.414L10 16 .292 25.708a.999.999 0 0 0 0 1.414l4.586 4.586a1 1 0 0 0 1.414 0L16 22l9.708 9.708a1 1 0 0 0 1.414 0l4.586-4.586a.999.999 0 0 0 0-1.414z"/></symbol><symbol id="icon-logo" viewBox="0 0 71 32"><path d="M0 20.36V1.469A1.428 1.428 0 0 1 .417.423C.547.287.703.179.875.106s.358-.109.544-.106H9.78c4.329 0 7.477.877 9.445 2.632s2.953 4.51 2.955 8.265c0 3.747-.985 6.495-2.955 8.246s-5.119 2.626-9.445 2.626H1.419a1.393 1.393 0 0 1-1.003-.404 1.306 1.306 0 0 1-.417-1.004zm5.641-2.899h3.977c2.683 0 4.507-.496 5.475-1.488s1.451-2.687 1.451-5.086c0-2.403-.484-4.098-1.451-5.086s-2.792-1.486-5.475-1.494H5.641V17.46z"/><path fill="#84c551" style="fill:var(--color2,#84c551)" d="M30.241 16.504v.016h2.538c.273 0 .539 0 .802-.016H30.24z"/><path d="M48.843 2.867V1.44a1.397 1.397 0 0 1 .87-1.343c.175-.07.362-.103.55-.097h18.982a1.353 1.353 0 0 1 1.018.407 1.408 1.408 0 0 1 .402 1.033v1.427a1.399 1.399 0 0 1-.401 1.024 1.397 1.397 0 0 1-1.018.4h-6.672v16.068a1.334 1.334 0 0 1-.411.992 1.37 1.37 0 0 1-.993.404h-2.82a1.367 1.367 0 0 1-.997-.403 1.329 1.329 0 0 1-.411-.992V4.301H50.27c-.187.006-.373-.027-.548-.096s-.333-.173-.468-.305a1.38 1.38 0 0 1-.411-1.034z"/><path fill="#84c551" style="fill:var(--color2,#84c551)" d="M.42 30.525v-4.081a.314.314 0 0 1 .091-.229.29.29 0 0 1 .216-.089h.633a.288.288 0 0 1 .213.089.317.317 0 0 1 .091.229v3.455h2.82a.282.282 0 0 1 .216.093.323.323 0 0 1 .088.219v.318a.315.315 0 0 1-.088.216.29.29 0 0 1-.216.089H.733a.306.306 0 0 1-.216-.086.272.272 0 0 1-.097-.223zM5.528 30.414a2.156 2.156 0 0 1 0-2.762 2.252 2.252 0 0 1 2.776 0 1.749 1.749 0 0 1 .498 1.347v.188a.207.207 0 0 1-.056.146.189.189 0 0 1-.144.057H6.167a.882.882 0 0 0 .229.585.886.886 0 0 0 .627.184.717.717 0 0 0 .586-.197.503.503 0 0 1 .391-.2h.483c.027-.001.053.004.078.013s.047.025.066.044a.197.197 0 0 1 .057.146c0 .636-.589.954-1.767.954a1.935 1.935 0 0 1-1.388-.505zm.627-1.729h1.504c-.022-.515-.27-.772-.749-.772s-.718.257-.746.772h-.009zM11.075 30.115l.445-.041h.119a.19.19 0 0 1 .144.058.193.193 0 0 1 .057.143v.353c0 .024-.005.048-.015.07s-.024.041-.041.058a.243.243 0 0 1-.144.07c-.285.05-.573.072-.862.067-.923 0-1.386-.492-1.388-1.475v-3.09a.207.207 0 0 1 .056-.146c.019-.018.041-.033.065-.042s.05-.013.076-.012h.724c.026-.001.052.003.076.012s.046.024.065.042a.207.207 0 0 1 .056.146v1.097h.899a.2.2 0 0 1 .141.054.197.197 0 0 1 .056.146v.388a.193.193 0 0 1-.121.188.196.196 0 0 1-.076.012h-.899v1.202a.767.767 0 0 0 .154.515.498.498 0 0 0 .413.188zM13.083 26.126c.276 0 .417.102.417.318a.552.552 0 0 1-.047.2l-.385.989a.655.655 0 0 1-.201.267.479.479 0 0 1-.313.108h-.128c-.135 0-.219-.029-.257-.086a.34.34 0 0 1-.053-.178 1.761 1.761 0 0 1 0-.178l.191-1.055a.44.44 0 0 1 .179-.267c.09-.069.2-.107.313-.108l.285-.01zM13.961 28.227c0-.71.562-1.064 1.686-1.062 1.178 0 1.771.318 1.771.954a.19.19 0 0 1-.057.142.185.185 0 0 1-.14.057h-.483a.476.476 0 0 1-.392-.197.774.774 0 0 0-.627-.198c-.418 0-.627.106-.627.318 0 .099.085.178.251.245.203.077.413.134.627.172.242.05.482.113.718.188.235.069.45.195.627.366a.862.862 0 0 1 .25.636c0 .706-.593 1.058-1.78 1.058s-1.779-.318-1.777-.954a.197.197 0 0 1 .123-.19.19.19 0 0 1 .078-.014h.483a.478.478 0 0 1 .392.2.777.777 0 0 0 .627.197c.492 0 .74-.105.74-.318 0-.099-.085-.181-.251-.245a4.002 4.002 0 0 0-.627-.178 7.79 7.79 0 0 1-.721-.188 1.457 1.457 0 0 1-.608-.366.852.852 0 0 1-.282-.627zM20.689 30.102a1.675 1.675 0 0 1-.452-1.246 1.57 1.57 0 0 1 .514-1.243 2.17 2.17 0 0 1 1.473-.448c.328.003.654.039.975.108.265.046.521.134.758.261v3.036a1.264 1.264 0 0 1-.473 1.081 2.222 2.222 0 0 1-1.335.35 3.177 3.177 0 0 1-1.322-.219.746.746 0 0 1-.463-.718c-.001-.027.004-.054.013-.079s.024-.048.043-.067c.019-.019.042-.034.066-.044s.051-.014.078-.014h.483a.459.459 0 0 1 .373.172.766.766 0 0 0 .627.225c.22.024.441-.03.627-.153a.695.695 0 0 0 .166-.534v-.153c-.315.085-.639.13-.965.133a1.59 1.59 0 0 1-1.184-.448zm1.47-2.142c-.511 0-.768.296-.768.896s.251.9.749.9c.236-.004.471-.037.699-.099v-1.624a2.472 2.472 0 0 0-.68-.073zM27.204 28.065l-.498-.019a1.1 1.1 0 0 0-.834.486v2.095a.203.203 0 0 1-.057.143c-.019.018-.041.033-.065.042s-.05.013-.076.012h-.724a.178.178 0 0 1-.141-.054.193.193 0 0 1-.057-.143v-3.179c-.001-.027.004-.054.013-.079s.024-.048.043-.067a.2.2 0 0 1 .141-.057h.724c.026-.001.052.004.076.014a.202.202 0 0 1 .108.111c.01.025.014.052.013.079v.207a2.64 2.64 0 0 1 .627-.359 2.31 2.31 0 0 1 .799-.118c.053 0 .105.021.144.057.018.019.033.041.042.066s.014.051.014.077v.499a.189.189 0 0 1-.057.143c-.019.019-.042.034-.066.044s-.051.014-.078.014l-.094-.013zM28.273 30.42a2.167 2.167 0 0 1 0-2.782 2.458 2.458 0 0 1 2.898 0 2.167 2.167 0 0 1 0 2.782 2.48 2.48 0 0 1-2.898 0zm.818-2.244a1.898 1.898 0 0 0 0 1.7.883.883 0 0 0 1.254 0 1.9 1.9 0 0 0 0-1.7c-.168-.165-.393-.258-.627-.258s-.459.093-.627.258zM31.936 27.521a.629.629 0 0 1-.031-.143c0-.095.056-.143.163-.146h.602a.507.507 0 0 1 .273.076c.077.05.134.125.163.213l.53 1.767.523-1.767c.018-.085.065-.161.132-.214s.152-.08.237-.076h.57a.355.355 0 0 1 .37.289l.523 1.767.53-1.767a.396.396 0 0 1 .166-.213.488.488 0 0 1 .273-.076h.599c.107 0 .16.051.163.146a.438.438 0 0 1-.028.143l-.981 3.017a.391.391 0 0 1-.16.21.46.46 0 0 1-.251.076h-.454a.451.451 0 0 1-.254-.079.38.38 0 0 1-.157-.207l-.627-1.955-.627 1.955a.38.38 0 0 1-.16.207.427.427 0 0 1-.251.079h-.448a.45.45 0 0 1-.248-.076.401.401 0 0 1-.163-.21l-.978-3.017zM42.187 30.115l.445-.041h.119a.19.19 0 0 1 .144.058.193.193 0 0 1 .057.143v.353c0 .024-.005.048-.015.07s-.024.041-.041.058a.243.243 0 0 1-.144.07c-.285.05-.573.072-.862.067-.923 0-1.386-.492-1.388-1.475v-3.09a.207.207 0 0 1 .056-.146c.019-.018.041-.033.065-.042s.05-.013.076-.012h.724c.026-.001.052.003.076.012s.046.024.065.042a.207.207 0 0 1 .056.146v1.097h.903c.051 0 .1.019.138.054.019.019.034.042.045.067s.015.052.015.079v.388c0 .027-.005.054-.015.079a.189.189 0 0 1-.109.108.19.19 0 0 1-.074.013h-.903v1.202a.767.767 0 0 0 .154.515.498.498 0 0 0 .413.188zM43.754 30.42c-.326-.388-.505-.881-.505-1.391s.179-1.003.505-1.391a2.458 2.458 0 0 1 2.898 0 2.167 2.167 0 0 1 0 2.782 2.48 2.48 0 0 1-2.898 0zm.818-2.244a1.898 1.898 0 0 0 0 1.7.72.72 0 0 0 .626.27.734.734 0 0 0 .627-.271 1.872 1.872 0 0 0 0-1.7.734.734 0 0 0-.627-.263.727.727 0 0 0-.626.264zM48 30.102a1.675 1.675 0 0 1-.452-1.246 1.57 1.57 0 0 1 .514-1.243 2.172 2.172 0 0 1 1.476-.448c.327.003.652.039.971.108.266.046.523.134.762.261v3.036a1.251 1.251 0 0 1-.477 1.08 2.227 2.227 0 0 1-1.332.35 3.177 3.177 0 0 1-1.322-.219c-.141-.056-.262-.155-.345-.284s-.125-.281-.119-.434c-.001-.027.004-.054.013-.079s.024-.048.043-.067a.196.196 0 0 1 .144-.058h.489a.442.442 0 0 1 .372.172.762.762 0 0 0 .626.226.925.925 0 0 0 .627-.153.7.7 0 0 0 .17-.534v-.153c-.316.085-.641.13-.968.133a1.596 1.596 0 0 1-1.194-.448zm1.47-2.142c-.511 0-.765.296-.765.896s.248.9.746.9c.237-.004.473-.037.702-.099v-1.624a2.493 2.493 0 0 0-.683-.073zM52.362 30.414a2.156 2.156 0 0 1 0-2.762 2.252 2.252 0 0 1 2.776 0 1.749 1.749 0 0 1 .498 1.347v.188a.207.207 0 0 1-.056.146.189.189 0 0 1-.144.057h-2.435a.882.882 0 0 0 .229.585.886.886 0 0 0 .627.184.717.717 0 0 0 .586-.197.503.503 0 0 1 .391-.2h.483a.19.19 0 0 1 .144.058.193.193 0 0 1 .056.146c0 .636-.589.954-1.767.954a1.935 1.935 0 0 1-1.388-.505zm.627-1.729h1.504c-.022-.515-.273-.772-.749-.772s-.718.257-.746.772h-.009zM57.922 30.115l.442-.041h.122a.193.193 0 0 1 .201.2v.353c0 .024-.005.048-.015.07s-.024.041-.041.058a.248.248 0 0 1-.144.07c-.285.05-.573.072-.862.067-.926 0-1.388-.492-1.388-1.475v-3.09a.207.207 0 0 1 .056-.146c.019-.018.041-.033.065-.042s.05-.013.076-.012h.724c.026-.001.052.003.076.012s.046.024.065.042a.207.207 0 0 1 .056.146v1.097h.899a.2.2 0 0 1 .141.054c.019.019.034.042.043.067s.014.052.013.079v.388c.001.027-.004.054-.013.079a.183.183 0 0 1-.108.109.196.196 0 0 1-.076.012h-.899v1.202a.767.767 0 0 0 .154.515.498.498 0 0 0 .413.188zM59.216 30.627v-4.301a.207.207 0 0 1 .056-.146c.019-.018.041-.033.065-.042s.05-.013.076-.012h.724c.026-.001.052.003.076.012s.046.024.065.042a.207.207 0 0 1 .056.146v1.316c.324-.3.746-.47 1.185-.477a1.411 1.411 0 0 1 1.022.391 1.6 1.6 0 0 1 .395 1.189v1.882a.185.185 0 0 1-.057.14.189.189 0 0 1-.144.057h-.721c-.026.001-.052-.004-.076-.014s-.046-.025-.065-.043c-.018-.018-.033-.04-.043-.064s-.014-.05-.014-.076v-1.882c0-.524-.207-.785-.627-.785a1.268 1.268 0 0 0-.865.471v2.196a.185.185 0 0 1-.057.14.2.2 0 0 1-.141.057h-.724c-.026.001-.052-.004-.076-.014s-.046-.025-.065-.043a.186.186 0 0 1-.047-.14zM64.036 30.414a2.163 2.163 0 0 1 0-2.762c.381-.342.88-.517 1.388-.486a1.924 1.924 0 0 1 1.385.474 1.751 1.751 0 0 1 .499 1.347v.188a.196.196 0 0 1-.123.19.189.189 0 0 1-.078.013h-2.444a.876.876 0 0 0 .226.585.89.89 0 0 0 .627.184.737.737 0 0 0 .589-.197.508.508 0 0 1 .392-.2h.48c.026-.001.053.004.077.013s.047.025.067.044a.197.197 0 0 1 .056.146c0 .636-.589.954-1.767.954a1.933 1.933 0 0 1-1.373-.493zm.626-1.729h1.501c-.022-.515-.27-.772-.749-.772s-.724.257-.752.772zM70.35 28.065l-.498-.019a1.09 1.09 0 0 0-.833.486v2.095a.203.203 0 0 1-.057.143c-.019.018-.041.033-.065.042s-.051.013-.076.012h-.711a.176.176 0 0 1-.142-.054.193.193 0 0 1-.057-.143v-3.179a.197.197 0 0 1 .056-.146.199.199 0 0 1 .142-.057h.723a.181.181 0 0 1 .142.057.197.197 0 0 1 .056.146v.207a2.64 2.64 0 0 1 .627-.359c.257-.086.528-.126.799-.118a.21.21 0 0 1 .144.057.193.193 0 0 1 .057.143v.499a.189.189 0 0 1-.057.143.196.196 0 0 1-.144.058l-.107-.013z"/><path fill="#21603f" style="fill:var(--color3,#21603f)" d="M24.484 16.504v.019l-.997 3.837c-.033.149-.05.302-.053.455.015.221.102.432.248.598a.97.97 0 0 0 .837.343h2.949a1.78 1.78 0 0 0 1.106-.404c.337-.249.575-.612.671-1.024l.997-3.814v-.016l-5.757.006z"/><path fill="#84c551" style="fill:var(--color2,#84c551)" d="M45.446.016a1.298 1.298 0 0 0-.216 0h-8.856c-3.134.114-5.489.896-7.067 2.346a3.518 3.518 0 0 0-.216.207 7.147 7.147 0 0 0-1.849 3.347l-2.751 10.585h9.088c3.119-.114 5.467-.89 7.045-2.327.075-.067.147-.137.219-.207a7.142 7.142 0 0 0 1.88-3.366L45.474.016h-.028zM37.279 9.18a4.115 4.115 0 0 1-1.313 2.114l-.132.105a3.938 3.938 0 0 1-2.118.811H31.35l1.313-4.87a4.133 4.133 0 0 1 1.069-1.907c.072-.07.147-.14.226-.207l.15-.124a3.938 3.938 0 0 1 2.118-.811h2.369L37.279 9.18z"/><path d="M44.12 10.658a8.153 8.153 0 0 1-3.253 4.832v4.816a1.396 1.396 0 0 0 .396 1.024 1.347 1.347 0 0 0 1.009.403h2.82a1.393 1.393 0 0 0 1.003-.403 1.326 1.326 0 0 0 .417-.992V1.463l-2.391 9.196z"/></symbol></defs></svg>