<!-- Generated by IcoMoon.io -->
<svg version="1.1" xmlns="http://www.w3.org/2000/svg" width="36" height="32" viewBox="0 0 36 32">
<title>arrow-left</title>
<path d="M33.419 13.504c-0.146-0.024-0.293-0.034-0.44-0.033h-25.084l0.547-0.254c0.535-0.253 1.021-0.597 1.437-1.018l7.034-7.034c0.926-0.884 1.082-2.307 0.369-3.371-0.83-1.134-2.422-1.38-3.556-0.55-0.092 0.067-0.179 0.14-0.26 0.219l-12.72 12.72c-0.994 0.993-0.995 2.604-0.002 3.598 0.001 0.001 0.001 0.001 0.002 0.002l12.72 12.72c0.995 0.992 2.606 0.99 3.598-0.005 0.078-0.078 0.151-0.162 0.218-0.249 0.713-1.064 0.557-2.486-0.369-3.371l-7.021-7.047c-0.373-0.373-0.802-0.687-1.272-0.929l-0.763-0.343h24.982c1.3 0.048 2.44-0.859 2.684-2.137 0.225-1.387-0.717-2.693-2.104-2.918z"></path>
</svg>
