<!-- Generated by IcoMoon.io -->
<svg version="1.1" xmlns="http://www.w3.org/2000/svg" width="32" height="32" viewBox="0 0 32 32">
<title>fertilizer</title>
<path d="M24.86 28.157h-0.133c0 0.151 0.060 0.297 0.167 0.404s0.252 0.167 0.404 0.167 0.297-0.060 0.404-0.167c0.107-0.107 0.167-0.252 0.167-0.404v-0c-0.001-0.542-0.216-1.061-0.599-1.445s-0.903-0.599-1.445-0.599h-0c-0.151 0-0.297 0.060-0.404 0.167s-0.167 0.252-0.167 0.404 0.060 0.297 0.167 0.404c0.107 0.107 0.252 0.167 0.404 0.167v-0.133M24.86 28.157l-0.133 0c-0-0.239-0.096-0.469-0.265-0.638s-0.399-0.265-0.638-0.265l0-0.133M24.86 28.157c-0-0.275-0.11-0.538-0.304-0.732s-0.457-0.303-0.732-0.304M24.86 28.157c0 0.116 0.046 0.227 0.128 0.309s0.193 0.128 0.309 0.128 0.227-0.046 0.309-0.128c0.082-0.082 0.128-0.193 0.128-0.309-0.001-0.507-0.202-0.992-0.56-1.351s-0.844-0.56-1.351-0.56c-0.116 0-0.227 0.046-0.309 0.128s-0.128 0.193-0.128 0.309 0.046 0.227 0.128 0.309c0.082 0.082 0.193 0.128 0.309 0.128"></path>
<path d="M21.277 25.064v0.133c0.151 0 0.297-0.060 0.404-0.167s0.167-0.252 0.167-0.404c0-0.151-0.060-0.297-0.167-0.404s-0.252-0.167-0.404-0.167h-0l-1.055 2.064 0.133 0c0 0 0 0 0 0 0-0.245 0.097-0.479 0.27-0.652s0.407-0.27 0.652-0.271l-0-0.133zM21.277 25.064c0.116 0 0.227-0.046 0.309-0.128s0.128-0.193 0.128-0.309c0-0.116-0.046-0.227-0.128-0.309s-0.193-0.128-0.309-0.128v0.875z"></path>
<path d="M16.179 16.035v-0c0-0.151-0.060-0.297-0.167-0.404s-0.252-0.167-0.404-0.167h-0c-0.508 0-1.010 0.109-1.472 0.318-0.361 0.163-0.691 0.384-0.978 0.654v-0.41c0.592-0.678 0.908-1.554 0.883-2.455-0.025-0.918-0.401-1.791-1.051-2.44-0.107-0.107-0.252-0.167-0.404-0.167s-0.297 0.060-0.404 0.167l-0 0c-0.648 0.65-1.022 1.523-1.047 2.44-0.024 0.9 0.29 1.776 0.88 2.454v0.411c-0.287-0.27-0.618-0.491-0.978-0.654-0.463-0.209-0.965-0.317-1.472-0.317h-0c-0.151 0-0.297 0.060-0.404 0.167s-0.167 0.252-0.167 0.404v0c0.001 0.873 0.321 1.716 0.898 2.371 0.551 0.626 1.302 1.039 2.123 1.172v0.887c0 0.151 0.060 0.297 0.167 0.404s0.252 0.167 0.404 0.167c0.151 0 0.297-0.060 0.404-0.167s0.167-0.252 0.167-0.404v-0.887c0.821-0.133 1.572-0.546 2.124-1.172 0.577-0.655 0.897-1.498 0.898-2.371zM12.277 11.225c-0.624 0.626-0.985 1.466-1.008 2.35s0.291 1.742 0.88 2.4l0.128-4.75zM12.273 13.671c-0-0.422 0.108-0.835 0.313-1.201 0.206 0.366 0.314 0.78 0.314 1.202s-0.109 0.835-0.314 1.201c-0.205-0.366-0.314-0.78-0.314-1.202zM13.875 17.325c0.298-0.298 0.667-0.514 1.071-0.628-0.114 0.404-0.329 0.773-0.627 1.071s-0.667 0.514-1.071 0.628c0.114-0.404 0.329-0.773 0.627-1.071zM11.297 17.325c0.298 0.298 0.514 0.667 0.627 1.070-0.403-0.114-0.772-0.329-1.070-0.627s-0.514-0.667-0.627-1.070c0.403 0.114 0.772 0.329 1.070 0.627z"></path>
<path d="M5.723 16v0c-0 1.357 0.402 2.685 1.157 3.813s1.826 2.009 3.080 2.528 2.634 0.655 3.966 0.391c1.331-0.265 2.554-0.919 3.514-1.878s1.614-2.183 1.879-3.514c0.265-1.331 0.129-2.711-0.391-3.966s-1.399-2.326-2.528-3.080c-1.129-0.754-2.456-1.157-3.813-1.157h-0c-1.82 0.002-3.564 0.726-4.851 2.012s-2.010 3.031-2.013 4.851zM12.586 10.278c1.132 0 2.238 0.336 3.179 0.964s1.674 1.522 2.107 2.568c0.433 1.045 0.546 2.196 0.326 3.306s-0.766 2.129-1.566 2.93c-0.8 0.8-1.82 1.345-2.93 1.566s-2.26 0.107-3.306-0.326-1.939-1.166-2.568-2.107c-0.629-0.941-0.964-2.047-0.964-3.179 0.002-1.517 0.605-2.971 1.678-4.044s2.527-1.676 4.044-1.678z"></path>
<path d="M29.165 27.975c-0.047-0.588-0.277-1.147-0.659-1.598s-0.894-0.771-1.467-0.915c0-0.022 0-0.044 0-0.066-0.001-0.706-0.268-1.385-0.747-1.903s-1.136-0.836-1.84-0.891c-0.023-0.098-0.050-0.194-0.083-0.288 0.273-2.060 0.419-4.134 0.437-6.212v-0.206c0-5.255-1.236-11.207-1.355-11.77v-2.55c0-0.116-0.046-0.227-0.128-0.309s-0.193-0.128-0.309-0.128h-20.082c-0.057-0-0.114 0.011-0.167 0.033s-0.101 0.054-0.142 0.095c-0.041 0.041-0.073 0.089-0.095 0.142s-0.033 0.11-0.033 0.167v2.55c-0.12 0.564-1.355 6.515-1.355 11.77v0.206c0 5.255 1.236 11.206 1.355 11.77v2.55c-0 0.057 0.011 0.114 0.033 0.167s0.054 0.101 0.095 0.142c0.041 0.041 0.089 0.073 0.142 0.095s0.11 0.033 0.167 0.033h27.491c0.057 0 0.114-0.011 0.167-0.033s0.101-0.054 0.142-0.095c0.041-0.041 0.073-0.089 0.095-0.142s0.033-0.11 0.033-0.167c0.003-0.533-0.159-1.053-0.462-1.491s-0.734-0.772-1.233-0.957zM3.37 2.014h19.207v1.722h-19.207v-1.722zM2.014 15.897c0-4.671 0.996-9.916 1.275-11.286h19.369c0.277 1.37 1.275 6.615 1.275 11.286v0.206c-0.011 1.679-0.113 3.357-0.304 5.025-0.384-0.377-0.861-0.644-1.383-0.776s-1.069-0.121-1.586 0.029c-0.517 0.15-0.984 0.435-1.354 0.825s-0.63 0.872-0.752 1.396c-0.703 0.056-1.359 0.375-1.838 0.893s-0.745 1.197-0.746 1.902c0 0.022 0 0.044 0 0.066-0.473 0.12-0.908 0.36-1.261 0.697s-0.613 0.76-0.754 1.228h-10.667c-0.278-1.37-1.275-6.616-1.275-11.286l0.001-0.205zM3.37 28.264h9.917c-0.291 0.197-0.538 0.452-0.728 0.748s-0.317 0.627-0.374 0.974h-8.816v-1.722zM17.879 29.986c0.087-0.219 0.238-0.407 0.434-0.54s0.426-0.204 0.662-0.204c0.116 0 0.227-0.046 0.309-0.128s0.128-0.193 0.128-0.309-0.046-0.227-0.128-0.309c-0.082-0.082-0.193-0.128-0.309-0.128-0.469 0.001-0.924 0.162-1.289 0.456s-0.619 0.705-0.719 1.163h-3.888c0.079-0.309 0.243-0.59 0.472-0.812s0.515-0.376 0.827-0.445c0.1-0.023 0.189-0.080 0.252-0.162s0.094-0.183 0.089-0.286l-0.003-0.048c0-0.016-0.003-0.032-0.003-0.049 0.002-0.483 0.185-0.948 0.513-1.303s0.776-0.575 1.258-0.617c0.061-0.005 0.12-0.023 0.174-0.052s0.101-0.069 0.138-0.118c0.037-0.049 0.064-0.104 0.078-0.164s0.016-0.121 0.005-0.181c-0.022-0.115-0.033-0.233-0.034-0.35 0.001-0.511 0.204-1.002 0.565-1.363s0.852-0.565 1.363-0.565c0.029 0 0.058 0.002 0.087 0.004l0.038 0.003c0.113 0.007 0.225-0.030 0.311-0.104s0.141-0.178 0.151-0.291c0.051-0.533 0.299-1.027 0.696-1.387s0.912-0.559 1.447-0.559c0.535 0 1.051 0.199 1.447 0.559s0.644 0.854 0.696 1.387c0.011 0.113 0.065 0.218 0.152 0.292s0.199 0.111 0.313 0.103l0.032-0.002c0.032-0.002 0.063-0.005 0.095-0.005 0.283-0.001 0.563 0.060 0.82 0.18s0.484 0.295 0.665 0.513c0.181 0.218 0.312 0.473 0.383 0.747s0.080 0.561 0.027 0.839c-0.011 0.060-0.009 0.122 0.005 0.181s0.041 0.115 0.078 0.164c0.037 0.049 0.084 0.089 0.138 0.118s0.113 0.047 0.174 0.052c0.482 0.041 0.93 0.261 1.258 0.616s0.511 0.82 0.513 1.304c0 0.016 0 0.031-0.002 0.047l-0.003 0.050c-0.005 0.103 0.026 0.204 0.089 0.286s0.151 0.139 0.251 0.162c0.311 0.069 0.598 0.223 0.827 0.445s0.393 0.503 0.472 0.812l-12.052-0.001z"></path>
<path fill="none" stroke-linejoin="miter" stroke-linecap="butt" stroke-miterlimit="4" stroke-width="0.5333" stroke="#000" d="M29.165 27.975c-0.047-0.588-0.277-1.147-0.659-1.598s-0.894-0.771-1.467-0.915c0-0.022 0-0.044 0-0.066-0.001-0.706-0.268-1.385-0.747-1.903s-1.136-0.836-1.84-0.891c-0.023-0.098-0.050-0.194-0.083-0.288 0.273-2.060 0.419-4.134 0.437-6.212v-0.206c0-5.255-1.236-11.207-1.355-11.77v-2.55c0-0.116-0.046-0.227-0.128-0.309s-0.193-0.128-0.309-0.128h-20.082c-0.057-0-0.114 0.011-0.167 0.033s-0.101 0.054-0.142 0.095c-0.041 0.041-0.073 0.089-0.095 0.142s-0.033 0.11-0.033 0.167v2.55c-0.12 0.564-1.355 6.515-1.355 11.77v0.206c0 5.255 1.236 11.206 1.355 11.77v2.55c-0 0.057 0.011 0.114 0.033 0.167s0.054 0.101 0.095 0.142c0.041 0.041 0.089 0.073 0.142 0.095s0.11 0.033 0.167 0.033h27.491c0.057 0 0.114-0.011 0.167-0.033s0.101-0.054 0.142-0.095c0.041-0.041 0.073-0.089 0.095-0.142s0.033-0.11 0.033-0.167c0.003-0.533-0.159-1.053-0.462-1.491s-0.734-0.772-1.233-0.957zM3.37 2.014h19.207v1.722h-19.207v-1.722zM2.014 15.897c0-4.671 0.996-9.916 1.275-11.286h19.369c0.277 1.37 1.275 6.615 1.275 11.286v0.206c-0.011 1.679-0.113 3.357-0.304 5.025-0.384-0.377-0.861-0.644-1.383-0.776s-1.069-0.121-1.586 0.029c-0.517 0.15-0.984 0.435-1.354 0.825s-0.63 0.872-0.752 1.396c-0.703 0.056-1.359 0.375-1.838 0.893s-0.745 1.197-0.746 1.902c0 0.022 0 0.044 0 0.066-0.473 0.12-0.908 0.36-1.261 0.697s-0.613 0.76-0.754 1.228h-10.667c-0.278-1.37-1.275-6.616-1.275-11.286l0.001-0.205zM3.37 28.264h9.917c-0.291 0.197-0.538 0.452-0.728 0.748s-0.317 0.627-0.374 0.974h-8.816v-1.722zM17.879 29.986c0.087-0.219 0.238-0.407 0.434-0.54s0.426-0.204 0.662-0.204c0.116 0 0.227-0.046 0.309-0.128s0.128-0.193 0.128-0.309-0.046-0.227-0.128-0.309c-0.082-0.082-0.193-0.128-0.309-0.128-0.469 0.001-0.924 0.162-1.289 0.456s-0.619 0.705-0.719 1.163h-3.888c0.079-0.309 0.243-0.59 0.472-0.812s0.515-0.376 0.827-0.445c0.1-0.023 0.189-0.080 0.252-0.162s0.094-0.183 0.089-0.286l-0.003-0.048c0-0.016-0.003-0.032-0.003-0.049 0.002-0.483 0.185-0.948 0.513-1.303s0.776-0.575 1.258-0.617c0.061-0.005 0.12-0.023 0.174-0.052s0.101-0.069 0.138-0.118c0.037-0.049 0.064-0.104 0.078-0.164s0.016-0.121 0.005-0.181c-0.022-0.115-0.033-0.233-0.034-0.35 0.001-0.511 0.204-1.002 0.565-1.363s0.852-0.565 1.363-0.565c0.029 0 0.058 0.002 0.087 0.004l0.038 0.003c0.113 0.007 0.225-0.030 0.311-0.104s0.141-0.178 0.151-0.291c0.051-0.533 0.299-1.027 0.696-1.387s0.912-0.559 1.447-0.559c0.535 0 1.051 0.199 1.447 0.559s0.644 0.854 0.696 1.387c0.011 0.113 0.065 0.218 0.152 0.292s0.199 0.111 0.313 0.103l0.032-0.002c0.032-0.002 0.063-0.005 0.095-0.005 0.283-0.001 0.563 0.060 0.82 0.18s0.484 0.295 0.665 0.513c0.181 0.218 0.312 0.473 0.383 0.747s0.080 0.561 0.027 0.839c-0.011 0.060-0.009 0.122 0.005 0.181s0.041 0.115 0.078 0.164c0.037 0.049 0.084 0.089 0.138 0.118s0.113 0.047 0.174 0.052c0.482 0.041 0.93 0.261 1.258 0.616s0.511 0.82 0.513 1.304c0 0.016 0 0.031-0.002 0.047l-0.003 0.050c-0.005 0.103 0.026 0.204 0.089 0.286s0.151 0.139 0.251 0.162c0.311 0.069 0.598 0.223 0.827 0.445s0.393 0.503 0.472 0.812l-12.052-0.001z"></path>
<path d="M5.112 6.858h3.638c0.151 0 0.297-0.060 0.404-0.167s0.167-0.252 0.167-0.404c0-0.151-0.060-0.297-0.167-0.404s-0.252-0.167-0.404-0.167h-3.638c-0.151 0-0.297 0.060-0.404 0.167s-0.167 0.252-0.167 0.404c0 0.151 0.060 0.297 0.167 0.404s0.252 0.167 0.404 0.167z"></path>
<path d="M10.505 6.858h0.995c0.151 0 0.297-0.060 0.404-0.167s0.167-0.252 0.167-0.404c0-0.151-0.060-0.297-0.167-0.404s-0.252-0.167-0.404-0.167h-0.995c-0.151 0-0.297 0.060-0.404 0.167s-0.167 0.252-0.167 0.404c0 0.151 0.060 0.297 0.167 0.404s0.252 0.167 0.404 0.167z"></path>
</svg>
