<!-- Generated by IcoMoon.io -->
<svg version="1.1" xmlns="http://www.w3.org/2000/svg" width="38" height="32" viewBox="0 0 38 32">
<title>heart</title>
<path stroke-linejoin="miter" stroke-linecap="butt" stroke-miterlimit="4" stroke-width="0.6" stroke="#000" fill="#000" d="M17.6 3.695c1.784-1.814 4.21-2.839 6.781-2.839 5.249 0 9.519 4.27 9.519 9.52-0.001 2.665-0.862 5.415-2.54 8.17-1.328 2.18-3.17 4.373-5.471 6.521-3.901 3.64-7.857 5.946-7.904 5.973h-0c-0.119 0.069-0.252 0.104-0.385 0.104-0.13 0-0.26-0.033-0.377-0.099M17.6 3.695l-0.235 27.086M17.6 3.695c-1.784-1.814-4.21-2.839-6.781-2.839-5.249 0-9.519 4.27-9.519 9.519 0 3.094 1.156 6.288 3.405 9.491l0 0c0.244 0.348 0.723 0.431 1.071 0.187l11.824-16.358zM17.223 31.045c-0.003-0.002-0.006-0.003-0.008-0.005M17.223 31.045c0.003 0.002 0.004 0.002 0.002 0.001s-0.006-0.003-0.010-0.006M17.223 31.045c-0.002-0.001-0.005-0.002-0.009-0.004l-0.049-0.023c-0.042-0.021-0.103-0.050-0.181-0.089-0.155-0.078-0.378-0.193-0.657-0.348-0.558-0.31-1.342-0.778-2.268-1.423-1.852-1.29-4.273-3.29-6.591-6.151M17.215 31.040c-0 0-0 0-0-0l0.15-0.26M17.215 31.040l0.15-0.26M7.468 23.005l0.233-0.189M7.468 23.005c0 0-0 0-0 0l0.233-0.189M7.468 23.005c-0.267-0.33-0.217-0.814 0.113-1.081h0c0.33-0.267 0.814-0.217 1.081 0.113v0c3.505 4.326 6.981 6.319 8.574 7.233 0.134 0.077 0.255 0.146 0.361 0.209 1.067-0.659 4.18-2.675 7.256-5.548 1.723-1.609 3.604-3.654 5.053-5.973s2.456-4.899 2.456-7.581l-24.661 12.44M7.701 22.816c4.403 5.435 9.183 7.733 9.631 7.949 0.019 0.009 0.031 0.015 0.033 0.016M18.195 5.332c1.525-1.868 3.779-2.938 6.186-2.938 4.401 0 7.981 3.581 7.981 7.982l-14.167-5.044z"></path>
</svg>
