<!-- Generated by IcoMoon.io -->
<svg version="1.1" xmlns="http://www.w3.org/2000/svg" width="42" height="32" viewBox="0 0 42 32">
<title>leaf</title>
<path d="M41.177 0.031c-0.138-0.012-0.277-0.012-0.415 0h-17.004c-6.017 0.22-10.539 1.721-13.568 4.504-0.144 0.128-0.283 0.256-0.415 0.397-1.741 1.772-2.969 3.995-3.55 6.427l-5.283 20.323h17.449c5.989-0.22 10.497-1.709 13.526-4.467 0.144-0.128 0.283-0.263 0.421-0.397 1.769-1.775 3.018-4.012 3.61-6.463l5.283-20.323h-0.054zM25.497 17.626c-0.354 1.391-1.076 2.657-2.088 3.662-0.138 0.134-0.283 0.269-0.433 0.397l-0.253 0.201c-1.178 0.909-2.591 1.45-4.067 1.556h-4.543l2.521-9.35c0.346-1.386 1.055-2.651 2.052-3.662 0.138-0.134 0.283-0.269 0.433-0.397l0.289-0.238c1.178-0.909 2.591-1.45 4.067-1.556h4.549l-2.527 9.387z"></path>
</svg>
