<!-- Generated by IcoMoon.io -->
<svg version="1.1" xmlns="http://www.w3.org/2000/svg" width="32" height="32" viewBox="0 0 32 32">
<title>seeds</title>
<path d="M14.179 7.27c0.281-0.178 0.365-0.55 0.187-0.831-1.605-2.536-3.326-3.868-5.124-3.868-1.329 0-2.631 0.742-3.869 2.162-1.031 1.182-2.001 2.805-2.886 4.82-1.541 3.507-2.621 7.821-2.621 10.499 0 5.17 4.206 9.376 9.376 9.376 1.195 0 2.339-0.225 3.392-0.635 1.049 0.385 2.138 0.577 3.226 0.577 1.304 0 2.605-0.276 3.83-0.825 1.874-0.839 4.459-2.714 6.751-4.888v0c0.241-0.229 0.251-0.61 0.022-0.851v0l-12.355-15.648M14.179 7.27l-0.071-0.113M14.179 7.27c0-0 0-0 0-0l-0.071-0.113M14.179 7.27c-0.281 0.178-0.653 0.094-0.831-0.187l0.113-0.071c0.139 0.219 0.428 0.284 0.647 0.145M19.198 27.447v0c1.719-0.769 4.238-2.598 6.414-4.663 0 0 0 0 0-0l0.092 0.097-6.506 4.566zM19.198 27.447c-1.585 0.71-3.314 0.895-4.981 0.55M19.198 27.447l-4.981 0.55M14.217 27.996c0.722-0.454 1.378-1.003 1.95-1.629 3.801-0.505 6.52-3.237 6.637-3.356h0c0.233-0.237 0.229-0.619-0.008-0.851v-0c-0.237-0.233-0.619-0.229-0.851 0.008l-7.727 5.829z"></path>
<path d="M15.389 8.259v0c0.305 0.608 0.6 1.256 0.878 1.931 2.971-0.585 6.243-0.798 8.856-0.566 3.529 0.313 5.873 1.404 6.685 3.217M15.389 8.259l16.298 4.637M15.389 8.259c-0.149-0.297-0.511-0.417-0.808-0.267l0.808 0.267zM31.809 12.841l-0.122 0.055M31.809 12.841c0 0 0 0 0 0l-0.122 0.055M31.809 12.841c0.693 1.546 0.193 3.365-0.708 5.045-0.904 1.686-2.232 3.267-3.257 4.361M31.687 12.896c1.333 2.974-1.897 7.079-3.941 9.261M27.843 22.248l-0.097-0.091M27.843 22.248c0 0 0 0 0 0l-0.097-0.091M27.843 22.248c-0.119 0.127-0.279 0.191-0.439 0.191-0.147 0-0.295-0.054-0.412-0.163v0c-0.243-0.227-0.255-0.608-0.028-0.851M27.746 22.157l-1.051-9.846c-0.182-0.043-4.053-0.915-9.338 0.917-0.198-0.64-0.413-1.276-0.644-1.897 2.809-0.534 5.865-0.723 8.304-0.506 1.097 0.097 2.335 0.297 3.394 0.69 1.062 0.395 1.921 0.976 2.299 1.819v0c0.383 0.854 0.259 2.012-0.377 3.403-0.635 1.387-1.77 2.982-3.368 4.687M26.964 21.424l0.097 0.091M26.964 21.424c0 0 0 0 0 0l0.097 0.091M27.062 21.516c3.207-3.424 4.581-6.426 3.77-8.236l-3.748 8.899c-0.189-0.177-0.199-0.474-0.022-0.663zM18.276 16.913v0c0.061 0.327-0.155 0.641-0.481 0.702 0 0 0 0 0 0l0.481-0.702zM18.276 16.913c-0.154-0.824-0.351-1.674-0.583-2.528M18.276 16.913l-0.583-2.528M17.693 14.385c2.472-0.863 4.633-1.094 6.187-1.106 0.789-0.006 1.421 0.044 1.857 0.096 0.218 0.026 0.387 0.052 0.503 0.073 0.058 0.010 0.102 0.019 0.132 0.025l0.035 0.007 0.009 0.002c0.002 0.001 0.003 0.001 0.003 0.001l0.030-0.13M17.693 14.385l9.32-1.381c-0.059 0.252-0.312 0.408-0.564 0.349M26.449 13.353l-0.031 0.13c0.324 0.077 0.648-0.124 0.724-0.448M26.449 13.353l0.694-0.318M27.142 13.035c0.076-0.324-0.124-0.648-0.448-0.724l0.448 0.724zM17.092 17.134l0.131-0.025-2.643-9.117c-0.297 0.149-0.417 0.511-0.267 0.808 1.219 2.423 2.258 5.54 2.779 8.334z"></path>
<path d="M24.651 17.172v0c0.298-0.147 0.659-0.024 0.806 0.275 0 0 0 0 0 0l-0.806-0.275zM24.651 17.172l-5.455 2.681M24.651 17.172l-5.455 2.681M18.922 20.659c0 0 0 0 0 0v0zM18.922 20.659c-0.147-0.298-0.024-0.659 0.275-0.806M18.922 20.659l0.275-0.806M19.669 20.814v0z"></path>
<path d="M7.51 6.909v0c0.264 0.202 0.315 0.579 0.113 0.843l-0.106-0.081M7.51 6.909l-2.829 16.364c0.039 0 0.079-0.004 0.118-0.012M7.51 6.909c-0.264-0.202-0.642-0.151-0.844 0.113v0c-0.053 0.070-1.166 1.546-2.041 4.234-0.802 2.466-1.545 6.466-0.535 11.533l0.131-0.026c-1.005-5.041-0.266-9.017 0.531-11.466 0.869-2.671 1.973-4.133 2.020-4.194 0.157-0.206 0.451-0.245 0.657-0.088s0.245 0.451 0.088 0.657M7.51 6.909l-1.881 4.721c0.817-2.533 1.877-3.945 1.888-3.959M7.518 7.672l0.106 0.081c0 0-0.004 0.006-0.012 0.017s-0.020 0.028-0.035 0.050c-0.031 0.044-0.075 0.109-0.131 0.194-0.112 0.171-0.269 0.425-0.452 0.758-0.365 0.665-0.831 1.643-1.236 2.901-0.748 2.317-1.441 6.088-0.485 10.882 0.065 0.326-0.147 0.643-0.473 0.708M4.799 23.262h0c-0 0-0 0-0 0z"></path>
<path d="M14.061 14.607h0c0.309-0.121 0.658 0.031 0.779 0.341M14.061 14.607l1.535 4.239c0 0 0 0 0 0M14.061 14.607c-0.309 0.121-0.462 0.47-0.342 0.779 0 0 0 0 0 0s0.001 0.002 0.002 0.005l0.005 0.014c0.005 0.012 0.011 0.030 0.019 0.053 0.017 0.047 0.040 0.115 0.069 0.203 0.057 0.176 0.134 0.432 0.213 0.749 0.158 0.635 0.326 1.518 0.366 2.514 0.105 2.62-0.674 4.749-2.307 6.343v0c-0.238 0.232-0.243 0.613-0.010 0.851v0c0.118 0.121 0.275 0.182 0.431 0.182 0.151 0 0.303-0.057 0.421-0.171 1.874-1.829 2.793-4.351 2.668-7.284M14.061 14.607l1.535 4.239M14.84 14.948v-0c0 0 0 0 0 0zM14.84 14.948c0.030 0.076 0.662 1.713 0.755 3.898"></path>
<path d="M10.849 10.251v0l-0.001 0c-0.332 0.012-0.592 0.291-0.58 0.623v0l0.216 6.074c0.012 0.325 0.279 0.581 0.601 0.581 0.008 0 0.015-0 0.021-0l0-0c0.332-0.012 0.592-0.291 0.58-0.623v0l-0.216-6.074c0 0 0 0 0 0-0.012-0.333-0.291-0.59-0.622-0.58z"></path>
<path d="M6.066 24.541h0c-0 0 0.001 0.001 0.003 0.003l0.008 0.009 0.031 0.033c0.027 0.028 0.067 0.069 0.117 0.118 0.101 0.098 0.246 0.232 0.422 0.377 0.355 0.292 0.831 0.623 1.34 0.808 0.312 0.114 0.474 0.459 0.36 0.771 0 0 0 0 0 0l-0.125-0.046c-0.069 0.19-0.249 0.309-0.441 0.309-0.053 0-0.107-0.009-0.16-0.028l-1.556-2.354zM6.066 24.541c-0.223-0.246-0.603-0.266-0.85-0.043l0.85 0.043zM5.172 25.348c0.045 0.050 1.086 1.193 2.404 1.672l-2.404-1.672zM5.215 24.498c-0.247 0.223-0.266 0.604-0.043 0.85l0.043-0.85z"></path>
<path d="M11.35 18.195c-0.332 0-0.602 0.269-0.602 0.602v0.043c0 0.333 0.27 0.602 0.602 0.602s0.602-0.269 0.602-0.602v-0.043c0-0.333-0.27-0.602-0.602-0.602z"></path>
<path d="M10.195 19.43c-0.332 0-0.602 0.269-0.602 0.602v0.043c0 0.333 0.27 0.602 0.602 0.602s0.602-0.269 0.602-0.602v-0.043c0-0.333-0.27-0.602-0.602-0.602z"></path>
<path d="M11.686 21.529c-0.332 0-0.602 0.269-0.602 0.602v0.043c0 0.333 0.27 0.602 0.602 0.602s0.602-0.27 0.602-0.602v-0.043c0-0.333-0.27-0.602-0.602-0.602z"></path>
</svg>
