<!-- Generated by IcoMoon.io -->
<svg version="1.1" xmlns="http://www.w3.org/2000/svg" width="75" height="32" viewBox="0 0 75 32">
<title>slider</title>
<path d="M37.333 32c1.767 0 3.2-1.433 3.2-3.2v-25.6c0-1.767-1.433-3.2-3.2-3.2s-3.2 1.433-3.2 3.2v25.6c0 1.767 1.433 3.2 3.2 3.2z"></path>
<path d="M54.4 32c1.767 0 3.2-1.433 3.2-3.2v-10.667c0-1.767-1.433-3.2-3.2-3.2s-3.2 1.433-3.2 3.2v10.667c0 1.767 1.433 3.2 3.2 3.2z"></path>
<path d="M71.467 32c1.767 0 3.2-1.433 3.2-3.2v-10.667c0-1.767-1.433-3.2-3.2-3.2s-3.2 1.433-3.2 3.2v10.667c0 1.767 1.433 3.2 3.2 3.2z"></path>
<path d="M20.267 32c1.767 0 3.2-1.433 3.2-3.2v-10.667c0-1.767-1.433-3.2-3.2-3.2s-3.2 1.433-3.2 3.2v10.667c0 1.767 1.433 3.2 3.2 3.2z"></path>
<path d="M3.2 32c1.767 0 3.2-1.433 3.2-3.2v-10.667c0-1.767-1.433-3.2-3.2-3.2s-3.2 1.433-3.2 3.2v10.667c0 1.767 1.433 3.2 3.2 3.2z"></path>
</svg>
