<svg width="33" height="25" viewBox="0 0 33 25" fill="none" xmlns="http://www.w3.org/2000/svg">
<path d="M32.1692 0.0238614C32.0613 0.0143851 31.9527 0.0143851 31.8448 0.0238614H23.5622H18.5607C13.8601 0.195511 10.3268 1.36845 7.96076 3.54269C7.84794 3.64282 7.7398 3.74293 7.63638 3.85259C6.27604 5.23695 5.31667 6.97372 4.86298 8.87337L0.73584 24.751H14.3678C19.0465 24.5793 22.5689 23.4159 24.9349 21.2608C25.0477 21.1606 25.1558 21.0557 25.2639 20.9508C26.6456 19.5642 27.6219 17.8165 28.0843 15.9015L32.2115 0.0238614H32.1692ZM19.9192 13.7701C19.6428 14.8567 19.0787 15.846 18.2881 16.631C18.18 16.7359 18.0672 16.8408 17.9497 16.9409L17.7522 17.0983C16.8322 17.8085 15.7278 18.2311 14.5746 18.3141H11.0255L12.9952 11.0094C13.2656 9.92677 13.8194 8.93832 14.5981 8.14861C14.7062 8.04372 14.819 7.93881 14.9365 7.83868L15.1622 7.65275C16.0822 6.94249 17.1865 6.51992 18.3398 6.43687H21.8935L19.9192 13.7701Z" fill="#84C551"/>
</svg>
